<svg xmlns="http://www.w3.org/2000/svg" width="54.791" height="47.885" viewBox="0 0 54.791 47.885"><g transform="translate(-0.115 -0.107)"><path d="M47.886,23.943A23.943,23.943,0,1,0,23.943,47.885,23.943,23.943,0,0,0,47.886,23.943Z" transform="translate(7.02 0.107)" fill="#ea7053" opacity="0.67"/><path d="M47.886,23.943A23.943,23.943,0,1,0,23.943,47.885,23.943,23.943,0,0,0,47.886,23.943Z" transform="translate(7.02 0.107)" fill="#ea7053" opacity="0.67"/><path d="M12.567,1.157c0,.638-2.813,1.156-6.283,1.156S0,1.8,0,1.157,2.813,0,6.284,0,12.567.518,12.567,1.157Z" transform="translate(34.083 39.071)" fill="#ea7053" opacity="0.91"/><path d="M47.812,0H.074Q0,.934,0,1.886T.074,3.771H47.812q.073-.933.074-1.885T47.812,0Z" transform="translate(7.02 22.164)" fill="#f5ece1"/><path d="M.15.094,0,.056Z" transform="translate(39.624 39.95)" fill="#f4b7a9"/><path d="M.122.107.028.043Z" transform="translate(33.742 37.609)" fill="#f4b7a9"/><path d="M.079.078.071.072Z" transform="translate(33.493 37.428)" fill="#f4b7a9"/><path d="M.092.085.058.065Z" transform="translate(34.297 37.956)" fill="#f4b7a9"/><path d="M.15.1,0,.048Z" transform="translate(38.085 39.533)" fill="#f4b7a9"/><path d="M.15.105,0,.045Z" transform="translate(37.238 39.253)" fill="#f4b7a9"/><path d="M.15.1,0,.054Z" transform="translate(39.276 39.867)" fill="#f4b7a9"/><path d="M.126.107.024.043Z" transform="translate(33.991 37.773)" fill="#f4b7a9"/><path d="M.15.1,0,.05Z" transform="translate(38.456 39.645)" fill="#f4b7a9"/><path d="M.14.1.01.054Z" transform="translate(37.678 39.4)" fill="#f4b7a9"/><path d="M.143.085.007.065Z" transform="translate(40.664 40.147)" fill="#f4b7a9"/><path d="M.1.1.047.045Z" transform="translate(33.118 37.087)" fill="#f4b7a9"/><path d="M.108.105.042.045C.064.065.085.085.108.105Z" transform="translate(33.28 37.248)" fill="#f4b7a9"/><path d="M.134.091.016.059Z" transform="translate(38.887 39.764)" fill="#f4b7a9"/><path d="M.15.106,0,.044Z" transform="translate(36.866 39.119)" fill="#f4b7a9"/><path d="M.15.108,0,.042Z" transform="translate(36.044 38.796)" fill="#f4b7a9"/><path d="M.142.108.008.042Z" transform="translate(34.938 38.296)" fill="#f4b7a9"/><path d="M.15.108,0,.042Z" transform="translate(35.691 38.646)" fill="#f4b7a9"/><path d="M.132.087.018.063Z" transform="translate(40.014 40.034)" fill="#f4b7a9"/><path d="M.108.09.042.06Z" transform="translate(35.311 38.475)" fill="#f4b7a9"/><path d="M.138.108.012.042Z" transform="translate(34.625 38.135)" fill="#f4b7a9"/><path d="M.148.087,0,.063Z" transform="translate(40.365 40.1)" fill="#f4b7a9"/><path d="M.123.094.027.056Z" transform="translate(36.463 38.963)" fill="#f4b7a9"/><path d="M.251.106,0,.044C.085.066.169.087.251.106Z" transform="translate(40.116 40.066)" fill="#ea7053" opacity="0.67"/><path d="M.251.106,0,.044C.085.066.169.087.251.106Z" transform="translate(40.116 40.066)" fill="#f2aa99" opacity="0.44"/><path d="M.311.132Q.157.077,0,.018.157.077.311.132Z" transform="translate(38.588 39.708)" fill="#ea7053" opacity="0.67"/><path d="M.311.132Q.157.077,0,.018.157.077.311.132Z" transform="translate(38.588 39.708)" fill="#f2aa99" opacity="0.44"/><path d="M.22.109,0,.041Z" transform="translate(39.404 39.909)" fill="#ea7053" opacity="0.67"/><path d="M.22.109,0,.041Z" transform="translate(39.404 39.909)" fill="#f2aa99" opacity="0.44"/><path d="M.19.095,0,.055Z" transform="translate(40.479 40.124)" fill="#ea7053" opacity="0.67"/><path d="M.19.095,0,.055Z" transform="translate(40.479 40.124)" fill="#f2aa99" opacity="0.44"/><path d="M.286.124Q.144.077,0,.026.144.077.286.124Z" transform="translate(38.99 39.814)" fill="#ea7053" opacity="0.67"/><path d="M.286.124Q.144.077,0,.026.144.077.286.124Z" transform="translate(38.99 39.814)" fill="#f2aa99" opacity="0.44"/><path d="M.237.122,0,.029Z" transform="translate(38.22 39.59)" fill="#ea7053" opacity="0.67"/><path d="M.237.122,0,.029Z" transform="translate(38.22 39.59)" fill="#f2aa99" opacity="0.44"/><path d="M.28.114C.188.09.095.063,0,.036.095.063.188.09.28.114Z" transform="translate(39.748 39.994)" fill="#ea7053" opacity="0.67"/><path d="M.28.114C.188.09.095.063,0,.036.095.063.188.09.28.114Z" transform="translate(39.748 39.994)" fill="#f2aa99" opacity="0.44"/><path d="M.317.15Q.157.076,0,0,.157.076.317.15Z" transform="translate(36.166 38.879)" fill="#ea7053" opacity="0.67"/><path d="M.317.15Q.157.076,0,0,.157.076.317.15Z" transform="translate(36.166 38.879)" fill="#f2aa99" opacity="0.44"/><path d="M.3.15C.2.1.1.05,0,0,.1.05.2.1.3.15Z" transform="translate(35.047 38.379)" fill="#ea7053" opacity="0.67"/><path d="M.3.15C.2.1.1.05,0,0,.1.05.2.1.3.15Z" transform="translate(35.047 38.379)" fill="#f2aa99" opacity="0.44"/><path d="M.214.146Q.1.075,0,0,.1.075.214.146Z" transform="translate(34.731 38.215)" fill="#ea7053" opacity="0.67"/><path d="M.214.146Q.1.075,0,0,.1.075.214.146Z" transform="translate(34.731 38.215)" fill="#f2aa99" opacity="0.44"/><path d="M.266.15C.175.1.086.05,0,0,.086.05.175.1.266.15Z" transform="translate(34.368 38.021)" fill="#ea7053" opacity="0.67"/><path d="M.266.15C.175.1.086.05,0,0,.086.05.175.1.266.15Z" transform="translate(34.368 38.021)" fill="#f2aa99" opacity="0.44"/><path d="M.253.151C.166.1.082.051,0,0,.082.051.166.1.253.151Z" transform="translate(34.088 37.855)" fill="#ea7053" opacity="0.67"/><path d="M.253.151C.166.1.082.051,0,0,.082.051.166.1.253.151Z" transform="translate(34.088 37.855)" fill="#f2aa99" opacity="0.44"/><path d="M.239.094C.162.084.082.071,0,.056.082.071.162.084.239.094Z" transform="translate(40.774 40.17)" fill="#ea7053" opacity="0.67"/><path d="M.239.094C.162.084.082.071,0,.056.082.071.162.084.239.094Z" transform="translate(40.774 40.17)" fill="#f2aa99" opacity="0.44"/><path d="M.309.15Q.154.076,0,0,.154.076.309.15Z" transform="translate(36.557 39.035)" fill="#ea7053" opacity="0.67"/><path d="M.309.15Q.154.076,0,0,.154.076.309.15Z" transform="translate(36.557 39.035)" fill="#f2aa99" opacity="0.44"/><path d="M.3.15C.2.1.1.051,0,0,.1.051.2.1.3.15Z" transform="translate(35.394 38.544)" fill="#ea7053" opacity="0.67"/><path d="M.3.15C.2.1.1.051,0,0,.1.051.2.1.3.15Z" transform="translate(35.394 38.544)" fill="#f2aa99" opacity="0.44"/><path d="M.234.14,0,.01Z" transform="translate(35.81 38.721)" fill="#ea7053" opacity="0.67"/><path d="M.234.14,0,.01Z" transform="translate(35.81 38.721)" fill="#f2aa99" opacity="0.44"/><path d="M.174.149C.114.1.056.05,0,0,.056.05.114.1.174.149Z" transform="translate(33.836 37.69)" fill="#ea7053" opacity="0.67"/><path d="M.174.149C.114.1.056.05,0,0,.056.05.114.1.174.149Z" transform="translate(33.836 37.69)" fill="#f2aa99" opacity="0.44"/><path d="M.315.145,0,.005Z" transform="translate(37.371 39.33)" fill="#ea7053" opacity="0.67"/><path d="M.315.145,0,.005Z" transform="translate(37.371 39.33)" fill="#f2aa99" opacity="0.44"/><path d="M.21.154C.137.1.066.051,0,0,.066.051.136.1.21.154Z" transform="translate(33.554 37.488)" fill="#ea7053" opacity="0.67"/><path d="M.21.154C.137.1.066.051,0,0,.066.051.136.1.21.154Z" transform="translate(33.554 37.488)" fill="#f2aa99" opacity="0.44"/><path d="M.3.137Q.15.077,0,.013C.1.055.2.1.3.137Z" transform="translate(37.786 39.464)" fill="#ea7053" opacity="0.67"/><path d="M.3.137Q.15.077,0,.013C.1.055.2.1.3.137Z" transform="translate(37.786 39.464)" fill="#f2aa99" opacity="0.44"/><path d="M.242.131,0,.019Z" transform="translate(36.996 39.186)" fill="#ea7053" opacity="0.67"/><path d="M.242.131,0,.019Z" transform="translate(36.996 39.186)" fill="#f2aa99" opacity="0.44"/><path d="M.15.149C.1.1.047.05,0,0,.047.05.1.1.15.149Z" transform="translate(33.198 37.167)" fill="#ea7053" opacity="0.67"/><path d="M.15.149C.1.1.047.05,0,0,.047.05.1.1.15.149Z" transform="translate(33.198 37.167)" fill="#f2aa99" opacity="0.44"/><path d="M.15.152A1.8,1.8,0,0,1,0,0,1.783,1.783,0,0,0,.15.152Z" transform="translate(33.032 36.97)" fill="#ea7053" opacity="0.67"/><path d="M.15.152A1.8,1.8,0,0,1,0,0,1.783,1.783,0,0,0,.15.152Z" transform="translate(33.032 36.97)" fill="#f2aa99" opacity="0.44"/><path d="M.185.155C.118.1.058.051,0,0,.058.051.118.1.185.155Z" transform="translate(33.363 37.329)" fill="#ea7053" opacity="0.67"/><path d="M.185.155C.118.1.058.051,0,0,.058.051.118.1.185.155Z" transform="translate(33.363 37.329)" fill="#f2aa99" opacity="0.44"/><path d="M.091.077l-.007,0-.025,0Z" transform="translate(40.968 40.186)" fill="#f4b7a9"/><path d="M4.624,10.045c6.929,4.4,10.8,6.347,10.8,6.347-2.948,5.2-4.829,16.8-4.829,16.8s-1.163,2.6-.477,3.582c1.157,1.649,8.568,3.893,8.617,2.742.081-1.923-4.909-4.729-4.909-4.729C16.061,31.618,24.689,18.6,24.5,15.682,24.361,13.442,15.921,4.4,11.878.311A24.087,24.087,0,0,0,2.848.562C-.419,2.557-2.071,5.8,4.624,10.045Z" transform="translate(22.942 0.107)" fill="#f4b7a9"/><path d="M.965,3.557c-.477.025-.907-.75-.959-1.732S.3.026.774,0s.907.75.959,1.732S1.441,3.532.965,3.557Z" transform="translate(45.666 14.275)" fill="#f89ba0" opacity="0.41"/><path d="M.082.15C.077.1.072.05.068,0,.072.05.077.1.082.15Z" transform="translate(0.137 22.771)" fill="#f4b7a9"/><path d="M.059.129C.07.093.08.056.091.021.08.056.07.093.059.129Z" transform="translate(0.547 16.456)" fill="#f4b7a9"/><path d="M.073.08l0-.01Z" transform="translate(0.643 16.163)" fill="#f4b7a9"/><path d="M.071.094.079.056Z" transform="translate(0.388 17.091)" fill="#f4b7a9"/><path d="M.076.15c0-.05,0-.1,0-.15C.074.05.075.1.076.15Z" transform="translate(0.06 21.177)" fill="#f4b7a9"/><path d="M.073.15q0-.075,0-.15C.076.05.074.1.073.15Z" transform="translate(0.065 20.285)" fill="#f4b7a9"/><path d="M.081.15C.077.1.073.05.069,0,.073.05.077.1.081.15Z" transform="translate(0.109 22.415)" fill="#f4b7a9"/><path d="M.06.133C.07.094.08.056.09.017.08.056.07.094.06.133Z" transform="translate(0.469 16.743)" fill="#f4b7a9"/><path d="M.078.15C.076.1.074.05.072,0,.074.05.076.1.078.15Z" transform="translate(0.068 21.565)" fill="#f4b7a9"/><path d="M.075.143c0-.045,0-.091,0-.137C.075.052.075.1.075.143Z" transform="translate(0.058 20.753)" fill="#f4b7a9"/><path d="M.086.143C.079.1.071.053.064.007.071.053.079.1.086.143Z" transform="translate(0.269 23.823)" fill="#f4b7a9"/><path d="M.055.111.095.039C.082.062.068.087.055.111Z" transform="translate(0.851 15.702)" fill="#f4b7a9"/><path d="M.056.116C.068.088.081.061.094.034.081.061.068.088.056.116Z" transform="translate(0.748 15.905)" fill="#f4b7a9"/><path d="M.078.137C.076.1.074.055.072.014.074.055.076.1.078.137Z" transform="translate(0.085 22.015)" fill="#f4b7a9"/><path d="M.072.15c0-.05,0-.1.007-.15C.076.05.074.1.072.15Z" transform="translate(0.077 19.889)" fill="#f4b7a9"/><path d="M.068.15C.072.1.077.05.082,0,.077.05.072.1.068.15Z" transform="translate(0.129 19.007)" fill="#f4b7a9"/><path d="M.064.149C.071.1.079.05.086,0,.079.05.071.1.064.149Z" transform="translate(0.263 17.805)" fill="#f4b7a9"/><path d="M.067.15C.072.1.077.05.083,0,.077.05.072.1.067.15Z" transform="translate(0.163 18.625)" fill="#f4b7a9"/><path d="M.082.133C.077.094.073.056.068.017.073.056.077.094.082.133Z" transform="translate(0.177 23.17)" fill="#f4b7a9"/><path d="M.071.111C.073.087.076.063.079.039.076.063.073.087.071.111Z" transform="translate(0.208 18.216)" fill="#f4b7a9"/><path d="M.063.145C.071.1.079.051.087.005.079.051.071.1.063.145Z" transform="translate(0.319 17.458)" fill="#f4b7a9"/><path d="M.086.148C.079.1.071.052.064,0,.071.051.079.1.086.148Z" transform="translate(0.222 23.524)" fill="#f4b7a9"/><path d="M.072.127c0-.034,0-.069.006-.1C.076.058.074.092.072.127Z" transform="translate(0.099 19.462)" fill="#f4b7a9"/><path d="M.1.253C.081.171.068.086.054,0,.068.086.081.171.1.253Z" transform="translate(0.198 23.272)" fill="#ea7053" opacity="0.67"/><path d="M.1.253C.081.171.068.086.054,0,.068.086.081.171.1.253Z" transform="translate(0.198 23.272)" fill="#f2aa99" opacity="0.44"/><path d="M.083.323Q.074.163.067,0,.074.163.083.323Z" transform="translate(0.076 21.702)" fill="#ea7053" opacity="0.67"/><path d="M.083.323Q.074.163.067,0,.074.163.083.323Z" transform="translate(0.076 21.702)" fill="#f2aa99" opacity="0.44"/><path d="M.086.225C.078.151.071.076.064,0,.071.076.078.151.086.225Z" transform="translate(0.123 22.546)" fill="#ea7053" opacity="0.67"/><path d="M.086.225C.078.151.071.076.064,0,.071.076.078.151.086.225Z" transform="translate(0.123 22.546)" fill="#f2aa99" opacity="0.44"/><path d="M.094.19Q.074.1.056,0C.068.065.081.128.094.19Z" transform="translate(0.245 23.638)" fill="#ea7053" opacity="0.67"/><path d="M.094.19Q.074.1.056,0C.068.065.081.128.094.19Z" transform="translate(0.245 23.638)" fill="#f2aa99" opacity="0.44"/><path d="M.086.3Q.074.149.064,0,.074.149.086.3Z" transform="translate(0.096 22.12)" fill="#ea7053" opacity="0.67"/><path d="M.086.3Q.074.149.064,0,.074.149.086.3Z" transform="translate(0.096 22.12)" fill="#f2aa99" opacity="0.44"/><path d="M.078.247C.076.165.073.083.072,0Q.074.124.078.247Z" transform="translate(0.064 21.318)" fill="#ea7053" opacity="0.67"/><path d="M.078.247C.076.165.073.083.072,0Q.074.124.078.247Z" transform="translate(0.064 21.318)" fill="#f2aa99" opacity="0.44"/><path d="M.094.285C.08.192.068.1.056,0,.068.1.08.192.094.285Z" transform="translate(0.157 22.898)" fill="#ea7053" opacity="0.67"/><path d="M.094.285C.08.192.068.1.056,0,.068.1.08.192.094.285Z" transform="translate(0.157 22.898)" fill="#f2aa99" opacity="0.44"/><path d="M.06.341Q.073.169.09,0,.074.17.06.341Z" transform="translate(0.112 19.138)" fill="#ea7053" opacity="0.67"/><path d="M.06.341Q.073.169.09,0,.074.17.06.341Z" transform="translate(0.112 19.138)" fill="#f2aa99" opacity="0.44"/><path d="M.047.326C.064.216.083.107.1,0,.083.107.064.216.047.326Z" transform="translate(0.233 17.92)" fill="#ea7053" opacity="0.67"/><path d="M.047.326C.064.216.083.107.1,0,.083.107.064.216.047.326Z" transform="translate(0.233 17.92)" fill="#f2aa99" opacity="0.44"/><path d="M.05.237Q.074.117.1,0C.083.078.066.157.05.237Z" transform="translate(0.291 17.569)" fill="#ea7053" opacity="0.67"/><path d="M.05.237Q.074.117.1,0C.083.078.066.157.05.237Z" transform="translate(0.291 17.569)" fill="#f2aa99" opacity="0.44"/><path d="M.038.3C.061.2.086.1.112,0,.086.1.061.2.038.3Z" transform="translate(0.357 17.163)" fill="#ea7053" opacity="0.67"/><path d="M.038.3C.061.2.086.1.112,0,.086.1.061.2.038.3Z" transform="translate(0.357 17.163)" fill="#f2aa99" opacity="0.44"/><path d="M.032.288C.059.189.088.093.118,0,.088.093.059.189.032.288Z" transform="translate(0.424 16.846)" fill="#ea7053" opacity="0.67"/><path d="M.032.288C.059.189.088.093.118,0,.088.093.059.189.032.288Z" transform="translate(0.424 16.846)" fill="#f2aa99" opacity="0.44"/><path d="M.1.237C.084.161.064.082.045,0,.064.082.084.161.1.237Z" transform="translate(0.301 23.933)" fill="#ea7053" opacity="0.67"/><path d="M.1.237C.084.161.064.082.045,0,.064.082.084.161.1.237Z" transform="translate(0.301 23.933)" fill="#f2aa99" opacity="0.44"/><path d="M.064.33Q.073.165.086,0,.073.164.064.33Z" transform="translate(0.088 19.559)" fill="#ea7053" opacity="0.67"/><path d="M.064.33Q.073.165.086,0,.073.164.064.33Z" transform="translate(0.088 19.559)" fill="#f2aa99" opacity="0.44"/><path d="M.052.324C.066.215.081.107.1,0,.081.107.066.215.052.324Z" transform="translate(0.187 18.301)" fill="#ea7053" opacity="0.67"/><path d="M.052.324C.066.215.081.107.1,0,.081.107.066.215.052.324Z" transform="translate(0.187 18.301)" fill="#f2aa99" opacity="0.44"/><path d="M.061.253Q.074.126.089,0,.074.126.061.253Z" transform="translate(0.146 18.753)" fill="#ea7053" opacity="0.67"/><path d="M.061.253Q.074.126.089,0,.074.126.061.253Z" transform="translate(0.146 18.753)" fill="#f2aa99" opacity="0.44"/><path d="M.039.2C.062.132.086.065.111,0,.086.065.062.132.039.2Z" transform="translate(0.508 16.555)" fill="#ea7053" opacity="0.67"/><path d="M.039.2C.062.132.086.065.111,0,.086.065.062.132.039.2Z" transform="translate(0.508 16.555)" fill="#f2aa99" opacity="0.44"/><path d="M.072.333Q.074.167.078,0,.074.167.072.333Z" transform="translate(0.061 20.424)" fill="#ea7053" opacity="0.67"/><path d="M.072.333Q.074.167.078,0,.074.167.072.333Z" transform="translate(0.061 20.424)" fill="#f2aa99" opacity="0.44"/><path d="M.022.247C.056.161.091.078.128,0,.091.078.056.162.022.247Z" transform="translate(0.6 16.225)" fill="#ea7053" opacity="0.67"/><path d="M.022.247C.056.161.091.078.128,0,.091.078.056.162.022.247Z" transform="translate(0.6 16.225)" fill="#f2aa99" opacity="0.44"/><path d="M.076.314c0-.1,0-.209,0-.314C.074.1.074.21.076.314Z" transform="translate(0.059 20.863)" fill="#ea7053" opacity="0.67"/><path d="M.076.314c0-.1,0-.209,0-.314C.074.1.074.21.076.314Z" transform="translate(0.059 20.863)" fill="#f2aa99" opacity="0.44"/><path d="M.07.257Q.074.128.08,0C.076.086.073.171.07.257Z" transform="translate(0.071 20.028)" fill="#ea7053" opacity="0.67"/><path d="M.07.257Q.074.128.08,0C.076.086.073.171.07.257Z" transform="translate(0.071 20.028)" fill="#f2aa99" opacity="0.44"/><path d="M.028.15C.058.1.09.047.122,0,.09.047.058.1.028.15Z" transform="translate(0.799 15.787)" fill="#ea7053" opacity="0.67"/><path d="M.028.15C.058.1.09.047.122,0,.09.047.058.1.028.15Z" transform="translate(0.799 15.787)" fill="#f2aa99" opacity="0.44"/><path d="M.006.164A1.731,1.731,0,0,1,.144,0,1.739,1.739,0,0,0,.006.164Z" transform="translate(0.919 15.568)" fill="#ea7053" opacity="0.67"/><path d="M.006.164A1.731,1.731,0,0,1,.144,0,1.739,1.739,0,0,0,.006.164Z" transform="translate(0.919 15.568)" fill="#f2aa99" opacity="0.44"/><path d="M.016.223C.054.144.093.071.134,0,.093.071.054.144.016.223Z" transform="translate(0.689 15.994)" fill="#ea7053" opacity="0.67"/><path d="M.016.223C.054.144.093.071.134,0,.093.071.054.144.016.223Z" transform="translate(0.689 15.994)" fill="#f2aa99" opacity="0.44"/><path d="M.078.091V.083c0-.009,0-.016-.006-.024C.074.069.076.081.078.091Z" transform="translate(0.326 24.125)" fill="#f4b7a9"/><path d="M.029,1.669C-.142,1.223.463.575,1.38.222s1.8-.277,1.973.168S2.92,1.485,2,1.837.2,2.115.029,1.669Z" transform="translate(23.402 20.927)" fill="#f89ba0" opacity="0.41"/><path d="M5.522,2.922c-2.948,5.2-4.829,16.8-4.829,16.8s-1.163,2.6-.477,3.582c.867,1.236,5.249,2.807,7.409,3.031-2.264-.548-5.26-1.765-5.961-2.764-.686-.978.477-3.582.477-3.582s1.881-11.6,4.829-16.8c0,0-1.989-1-5.667-3.189L1.027.423C3.953,2.131,5.522,2.922,5.522,2.922Z" transform="translate(32.844 13.576)" fill="#f89ba0" opacity="0.41"/><path d="M0,.333A3.645,3.645,0,0,1,.15,0,3.645,3.645,0,0,0,0,.333Z" transform="translate(0.759 16.012)" fill="#f4b7a9"/><path d="M.064.554C.068.369.076.184.086,0Q.071.276.064.554Z" transform="translate(0.232 19.536)" fill="#f4b7a9"/><path d="M.006.389Q.07.184.144,0C.1.122.049.252.006.389Z" transform="translate(0.636 16.384)" fill="#f4b7a9"/><path d="M.117.412Q.071.217.033,0C.058.144.087.282.117.412Z" transform="translate(0.392 22.914)" fill="#f4b7a9"/><path d="M.027.146C.058.1.09.047.123,0,.09.047.058.1.027.146Z" transform="translate(1.028 15.566)" fill="#f4b7a9"/><path d="M.054.55C.065.365.079.182.1,0,.079.182.065.365.054.55Z" transform="translate(0.258 18.942)" fill="#f4b7a9"/><path d="M.1.489C.081.331.064.167.05,0,.064.167.081.331.1.489Z" transform="translate(0.279 21.882)" fill="#f4b7a9"/><path d="M.082.537Q.071.272.068,0,.071.272.082.537Z" transform="translate(0.225 20.731)" fill="#f4b7a9"/><path d="M0,.27A2.29,2.29,0,0,1,.15,0,2.29,2.29,0,0,0,0,.27Z" transform="translate(0.895 15.707)" fill="#f4b7a9"/><path d="M.044.536Q.07.264.106,0,.071.264.044.536Z" transform="translate(0.301 18.365)" fill="#f4b7a9"/><path d="M.035.512Q.07.25.115,0,.07.25.035.512Z" transform="translate(0.36 17.813)" fill="#f4b7a9"/><path d="M.041,0c.02.157.042.309.067.455C.084.309.061.157.041,0Z" transform="translate(0.329 22.416)" fill="#f4b7a9"/><path d="M.073.55q0-.274,0-.55Q.071.277.073.55Z" transform="translate(0.22 20.135)" fill="#f4b7a9"/><path d="M.025.48Q.07.232.125,0,.07.232.025.48Z" transform="translate(0.435 17.292)" fill="#f4b7a9"/><path d="M.015.438Q.07.21.135,0,.07.209.015.438Z" transform="translate(0.527 16.813)" fill="#f4b7a9"/><path d="M.091.516C.078.348.067.175.059,0Q.071.263.091.516Z" transform="translate(0.245 21.317)" fill="#f4b7a9"/><g transform="translate(0.462 9.115)"><path d="M.079.093V.088L.071.057Z" transform="translate(0.005 14.365)" fill="#f4b7a9"/><path d="M26.94,1.884,23.208,0c-.983,4.318-1.336,6.6-1.336,6.6-3.277-.67-8.351-.405-12.189-.042-3.026.286-5.283.634-5.283.634s-2.836-.3-3.554.652c-.734.975-.967,4.2-.79,6.519.152.711.369,1.141.647,1.064C2.557,14.91,3.687,9.3,3.687,9.3c1,.311,2.838.844,5.034,1.436,5.914,1.594,14.45,3.609,16.435,2.823,1.194-.473,3.669-4.219,6.063-8.294q.275-.469.548-.942Z" transform="translate(0.008 0.07)" fill="#f4b7a9"/></g><path d="M.075.1v0Z" transform="translate(0.219 20.65)" fill="#f2aa99" opacity="0.44"/><path d="M.073.1l0-.054C.076.066.074.084.073.1Z" transform="translate(0.276 18.864)" fill="#f2aa99" opacity="0.44"/><path d="M.075.1v0Z" transform="translate(0.222 20.054)" fill="#f2aa99" opacity="0.44"/><path d="M.064.094.086.056Z" transform="translate(0.982 15.635)" fill="#f2aa99" opacity="0.44"/><path d="M.071.1.079.049Z" transform="translate(0.394 17.735)" fill="#f2aa99" opacity="0.44"/><path d="M.072.1.078.049Z" transform="translate(0.326 18.287)" fill="#f2aa99" opacity="0.44"/><path d="M.07.1.08.049Z" transform="translate(0.477 17.214)" fill="#f2aa99" opacity="0.44"/><path d="M.069.1.081.049Z" transform="translate(0.578 16.736)" fill="#f2aa99" opacity="0.44"/><path d="M.065.1.085.052Z" transform="translate(0.83 15.937)" fill="#f2aa99" opacity="0.44"/><path d="M.067.1.083.05Z" transform="translate(0.695 16.307)" fill="#f2aa99" opacity="0.44"/><path d="M.074.1c0-.019,0-.038,0-.057C.075.066.074.084.074.1Z" transform="translate(0.241 19.456)" fill="#f2aa99" opacity="0.44"/><path d="M.08.1.07.05Z" transform="translate(0.428 23.287)" fill="#f2aa99" opacity="0.44"/><path d="M.078.1.072.045C.074.065.076.085.078.1Z" transform="translate(0.301 22.336)" fill="#f2aa99" opacity="0.44"/><path d="M.077.107c0-.021,0-.042,0-.063C.074.065.076.085.077.107Z" transform="translate(0.259 21.8)" fill="#f2aa99" opacity="0.44"/><path d="M.079.1.071.047Z" transform="translate(0.357 22.835)" fill="#f2aa99" opacity="0.44"/><path d="M.076.107l0-.063C.075.064.075.086.076.107Z" transform="translate(0.231 21.235)" fill="#f2aa99" opacity="0.44"/><path d="M1.04,2.814c.718-.954,3.554-.652,3.554-.652s2.257-.348,5.283-.634Q10.131.753,10.435,0C7.039.3,4.4.7,4.4.7S1.565.4.847,1.355c-.025.034-.05.071-.074.11l-.018.029a2.385,2.385,0,0,0-.136.27L.6,1.8c-.043.1-.083.214-.121.333L.47,2.17q-.057.183-.107.389l-.01.04q-.05.209-.092.438l-.007.04q-.042.232-.077.48L.172,3.6c-.023.167-.044.338-.062.512l0,.041c-.018.176-.034.355-.047.536,0,.014,0,.027,0,.041-.013.181-.024.365-.032.55,0,.015,0,.029,0,.043-.008.184-.014.369-.017.554,0,.015,0,.03,0,.045Q0,6.2,0,6.471v.046q0,.272.011.537c0,.016,0,.033,0,.049q.009.263.025.516c0,.016,0,.032,0,.049.011.167.024.331.038.489l0,.046c.015.157.032.309.052.455L.142,8.7c.02.144.041.282.065.412l.007.039c.012.064.024.127.037.187C.073,7.015.306,3.79,1.04,2.814Z" transform="translate(0.276 14.214)" fill="#f4b7a9"/><path d="M1.04,2.814c.718-.954,3.554-.652,3.554-.652s2.257-.348,5.283-.634Q10.131.753,10.435,0C7.039.3,4.4.7,4.4.7S1.565.4.847,1.355c-.025.034-.05.071-.074.11l-.018.029a2.385,2.385,0,0,0-.136.27L.6,1.8c-.043.1-.083.214-.121.333L.47,2.17q-.057.183-.107.389l-.01.04q-.05.209-.092.438l-.007.04q-.042.232-.077.48L.172,3.6c-.023.167-.044.338-.062.512l0,.041c-.018.176-.034.355-.047.536,0,.014,0,.027,0,.041-.013.181-.024.365-.032.55,0,.015,0,.029,0,.043-.008.184-.014.369-.017.554,0,.015,0,.03,0,.045Q0,6.2,0,6.471v.046q0,.272.011.537c0,.016,0,.033,0,.049q.009.263.025.516c0,.016,0,.032,0,.049.011.167.024.331.038.489l0,.046c.015.157.032.309.052.455L.142,8.7c.02.144.041.282.065.412l.007.039c.012.064.024.127.037.187C.073,7.015.306,3.79,1.04,2.814Z" transform="translate(0.276 14.214)" fill="#f2aa99" opacity="0.44"/><path d="M12.189,6.835s.353-2.282,1.336-6.6L13.057,0C12.282,3.525,12,5.375,12,5.375,8.929,4.749,4.287,4.94.558,5.265Q.253,6.017,0,6.793C3.838,6.43,8.912,6.166,12.189,6.835Z" transform="translate(10.153 8.949)" fill="#f4b7a9"/><path d="M12.189,6.835s.353-2.282,1.336-6.6L13.057,0C12.282,3.525,12,5.375,12,5.375,8.929,4.749,4.287,4.94.558,5.265Q.253,6.017,0,6.793C3.838,6.43,8.912,6.166,12.189,6.835Z" transform="translate(10.153 8.949)" fill="#f2aa99" opacity="0.44"/><path d="M4.763,3A14.285,14.285,0,0,1,.925.465Q.69.232.5,0,.354.611.227,1.174.107,1.7,0,2.19l.468.236L4.2,4.31,9.027,6.747q.4-.687.784-1.373C8.358,4.715,6.673,3.928,4.763,3Z" transform="translate(23.211 6.759)" fill="#71be5b"/><g transform="translate(0.462 9.115)" opacity="0.17"><path d="M.079.093V.088L.071.057Z" transform="translate(0.005 14.365)" fill="#f4b7a9"/><path d="M26.94,1.884,23.208,0c-.983,4.318-1.336,6.6-1.336,6.6-3.277-.67-8.351-.405-12.189-.042-3.026.286-5.283.634-5.283.634s-2.836-.3-3.554.652c-.734.975-.967,4.2-.79,6.519.152.711.369,1.141.647,1.064C2.557,14.91,3.687,9.3,3.687,9.3c1,.311,2.838.844,5.034,1.436,5.914,1.594,14.45,3.609,16.435,2.823,1.194-.473,3.669-4.219,6.063-8.294q.275-.469.548-.942Z" transform="translate(0.008 0.07)" fill="#f4b7a9"/></g><path d="M1.04,2.814c.718-.954,3.554-.652,3.554-.652s2.257-.348,5.283-.634Q10.131.753,10.435,0C7.039.3,4.4.7,4.4.7S1.565.4.847,1.355c-.025.034-.05.071-.074.11l-.018.029a2.385,2.385,0,0,0-.136.27L.6,1.8c-.043.1-.083.214-.121.333L.47,2.17q-.057.183-.107.389l-.01.04q-.05.209-.092.438l-.007.04q-.042.232-.077.48L.172,3.6c-.023.167-.044.338-.062.512l0,.041c-.018.176-.034.355-.047.536,0,.014,0,.027,0,.041-.013.181-.024.365-.032.55,0,.015,0,.029,0,.043-.008.184-.014.369-.017.554,0,.015,0,.03,0,.045Q0,6.2,0,6.471v.046q0,.272.011.537c0,.016,0,.033,0,.049q.009.263.025.516c0,.016,0,.032,0,.049.011.167.024.331.038.489l0,.046c.015.157.032.309.052.455L.142,8.7c.02.144.041.282.065.412l.007.039c.012.064.024.127.037.187C.073,7.015.306,3.79,1.04,2.814Z" transform="translate(0.276 14.214)" fill="#f89ba0" opacity="0.41"/><path d="M12.189,6.835s.353-2.282,1.336-6.6L13.057,0C12.282,3.525,12,5.375,12,5.375,8.929,4.749,4.287,4.94.558,5.265Q.253,6.017,0,6.793C3.838,6.43,8.912,6.166,12.189,6.835Z" transform="translate(10.153 8.949)" fill="#f89ba0" opacity="0.41"/><path d="M4.763,3A14.285,14.285,0,0,1,.925.465Q.69.232.5,0,.354.611.227,1.174.107,1.7,0,2.19l.468.236L4.2,4.31,9.027,6.747q.4-.687.784-1.373C8.358,4.715,6.673,3.928,4.763,3Z" transform="translate(23.211 6.759)" fill="#71be5b" opacity="0.17"/><path d="M14.071,2.571l0,0A19.633,19.633,0,0,0,12.9.5Q12.295.373,11.675.277A24.124,24.124,0,0,0,8.021,0Q6.81,0,5.628.119,4.8.2,3.988.34q-.473.08-.94.179l-.2.044C.536,1.974-.967,4.009.724,6.583q.165.252.373.511a14.285,14.285,0,0,0,3.528,2.951q2.689,1.706,4.748,2.928.65.388,1.235.731l.321.188.277-.423.712-1.086L16.59,5.259C15.724,4.317,14.869,3.406,14.071,2.571Z" transform="translate(22.942 0.107)" fill="#71be5b"/><path d="M.915.754C-.394,2.493-.229,10.859.97,10.525c2-.558,3.224-6.622,3.224-6.622l.177.055A8.028,8.028,0,0,1,4.146.009C3.211-.027,1.473.013.915.754Z" transform="translate(0.115 14.814)" fill="#f9d363"/><path d="M1.5,1.007A1.589,1.589,0,0,0,.1,0c-.142-.012-.13.209.01.221a1.369,1.369,0,0,1,1.175.854C1.316,1.214,1.526,1.145,1.5,1.007Z" transform="translate(2.731 19.078)" fill="#505b66"/><path d="M1.345.983A1.587,1.587,0,0,0,.132,0C-.009-.023-.056.193.085.218a1.36,1.36,0,0,1,1.05.833C1.19,1.181,1.4,1.114,1.345.983Z" transform="translate(2.534 20.162)" fill="#505b66"/><path d="M1.33,1.063A1.762,1.762,0,0,0,.128.005C-.008-.037-.054.18.081.221a1.536,1.536,0,0,1,1.038.91C1.158,1.268,1.368,1.2,1.33,1.063Z" transform="translate(2.245 21.163)" fill="#505b66"/><path d="M1.73.59a.885.885,0,0,0-1.682.546A.885.885,0,0,0,1.73.59Z" transform="translate(1.625 16.21)" fill="#71be5b"/><path d="M.234,3.3C1.485,5.086,9.493,7.511,9.546,6.267c.087-2.078-5.3-5.111-5.3-5.111L4.348,1A8.028,8.028,0,0,1,.523,0C.2.878-.3,2.545.234,3.3Z" transform="translate(32.797 33.666)" fill="#f9d363"/><path d="M1.4,0A1.589,1.589,0,0,0,.009,1.02c-.056.131.159.188.213.059A1.369,1.369,0,0,1,1.4.225C1.539.24,1.537.018,1.4,0Z" transform="translate(36.918 35.32)" fill="#505b66"/><path d="M1.321,0A1.587,1.587,0,0,0,.014.852C-.053.978.138,1.089.2.963A1.36,1.36,0,0,1,1.321.222C1.462.209,1.463-.012,1.321,0Z" transform="translate(37.894 35.981)" fill="#505b66"/><path d="M1.4,0A1.762,1.762,0,0,0,.02.817c-.082.117.11.227.191.111A1.536,1.536,0,0,1,1.4.222C1.539.227,1.539.006,1.4,0Z" transform="translate(38.753 36.604)" fill="#505b66"/><path d="M.855,0a.885.885,0,0,0,0,1.769A.885.885,0,0,0,.855,0Z" transform="translate(34.066 35.139)" fill="#71be5b"/></g></svg>