<svg xmlns="http://www.w3.org/2000/svg" width="48" height="48" viewBox="0 0 48 48"><path d="M48,24A24,24,0,1,1,21.166.167c.092-.012.184-.023.277-.031A24.259,24.259,0,0,1,24,0,24,24,0,0,1,48,24Z" transform="translate(0)" fill="#dd3d88"/><path d="M38.407,25.984a24.515,24.515,0,0,1,2.846,9.389,24.021,24.021,0,0,1-30.58,10.7,23.586,23.586,0,0,1-2.666-1.344,24.1,24.1,0,0,1-6.926-6.1c-.824-3.432-.743-7.25.509-9.936C4.109,23.285,0,17.037,0,17.037s8.028,1.355,10.52,8.187c-.082-.3-2.664-9.884,2.664-15.634,4.75-5.124,4.283-8.64,4.1-9.424-.023-.1-.042-.157-.045-.166s.123.047.322.134c2.114.918,13.776,6.611,10.371,19.167a10.218,10.218,0,0,1,7.522-6.2c5.726-1.064,7.363,3.434,7.363,3.434S34.917,19.348,38.407,25.984Z" transform="translate(3.886 0.001)" fill="#fbcd58"/><path d="M20.974,24.979a23.943,23.943,0,0,1-8.468,1.537,23.9,23.9,0,0,1-9.441-1.93c-2.5-5.34-4.3-10.2-2.017-13.736C3.6,6.892,3.6,5.36,3.6,5.36s3.19,4.083,2.3,8.677c.055-.12,1.834-3.968,4.85-4.848C13.813,8.3,15.154,1.851,13.3,0c.092.043,6,2.858,6,9.318A5.27,5.27,0,0,0,23.26,5.36S25.793,17.5,20.974,24.979Z" transform="translate(11.493 21.484)" fill="#f98c3c"/><g transform="translate(11.719 28.031)"><path d="M0,.719C0,.214.6,0,1.193,0S2.387.214,2.387.719V4.391L5.248.337A.716.716,0,0,1,5.875,0,1.52,1.52,0,0,1,7.283,1.224a.775.775,0,0,1-.153.459L4.621,4.835l3.167,4.85a.757.757,0,0,1,.122.4,1.46,1.46,0,0,1-1.438,1.193.922.922,0,0,1-.826-.444L3.029,6.855l-.642.826V10.45c0,.49-.6.735-1.193.735S0,10.94,0,10.45Z" transform="translate(0.002 0.327)" fill="#3d3d3d"/><path d="M0,4.284V3.244C0,1.423,1.04,0,3.443,0c1.5,0,2.586.6,2.586,1.27,0,.444-.367,1.163-.918,1.163-.367,0-.643-.367-1.469-.367-.918,0-1.27.428-1.27,1.178v1.04c0,.75.352,1.178,1.285,1.178.827,0,1.041-.413,1.454-.413A1.123,1.123,0,0,1,6.12,6.181c0,.688-1.163,1.347-2.647,1.347C1.04,7.528,0,6.135,0,4.284Z" transform="translate(8.722 4.137)" fill="#3d3d3d"/><path d="M1.958,7.528A1.854,1.854,0,0,1,0,5.493c0-1.6,1.1-2.31,3.58-2.31h.551V3.029A1.059,1.059,0,0,0,2.984,1.9,2.331,2.331,0,0,0,1.6,2.25a.769.769,0,0,1-.4.152C.7,2.4.4,1.8.4,1.224.4.477,1.947,0,3.014,0A3.661,3.661,0,0,1,5.7.92,2.856,2.856,0,0,1,6.5,3V6.64c0,.419-.5.734-1.163.734-.592,0-1.056-.323-1.056-.734V6.3A3,3,0,0,1,1.958,7.528ZM4.07,4.33c-.814,0-1.683.064-1.683.826,0,.414.212.643.6.643A1.424,1.424,0,0,0,4.131,4.391V4.33Z" transform="translate(15.791 4.137)" fill="#3d3d3d"/><path d="M2.371.719V10.71c0,.367-.535.734-1.193.734C.49,11.444,0,11.077,0,10.71V.719C0,.291.49,0,1.178,0c.658,0,1.193.291,1.193.719Z" transform="translate(24.205 0.067)" fill="#3d3d3d"/></g><path d="M.724,0C-2.221,7.818,4.847,8.273,3.643,13.574c0,0,5.629-3.166,1.2-7.59A22.163,22.163,0,0,1,.724,0Z" transform="translate(6.741 1.058)" fill="#fbcd58"/><path d="M5.819,0C8.764,5.334,1.7,5.645,2.9,9.262c0,0-5.629-2.16-1.2-5.179A16.152,16.152,0,0,0,5.819,0Z" transform="translate(33.549 3.328)" fill="#fbcd58"/></svg>